<svg xmlns="http://www.w3.org/2000/svg" width="512" height="512" viewBox="0 0 512 512" version="1.1"><path d="" stroke="none" fill="#080404" fill-rule="evenodd"/><path d="M 198.156 3.844 C 195.533 6.467, 194.107 8.928, 193.667 11.594 C 193.312 13.742, 193.017 55.438, 193.011 104.250 L 193 193 104.250 193.011 C 55.438 193.017, 13.742 193.312, 11.594 193.667 C 8.928 194.107, 6.467 195.533, 3.844 198.156 L 0 202 0 256 L 0 310 3.844 313.844 C 6.467 316.467, 8.928 317.893, 11.594 318.333 C 13.742 318.688, 55.438 318.983, 104.250 318.989 L 193 319 193.011 407.750 C 193.017 456.563, 193.312 498.258, 193.667 500.406 C 194.107 503.072, 195.533 505.533, 198.156 508.156 L 202 512 256 512 L 310 512 313.844 508.156 C 316.467 505.533, 317.893 503.072, 318.333 500.406 C 318.688 498.258, 318.983 456.563, 318.989 407.750 L 319 319 407.750 318.989 C 456.563 318.983, 498.275 318.685, 500.445 318.326 C 503.316 317.852, 505.563 316.468, 508.695 313.246 L 513 308.816 513 254.908 C 513 225.259, 512.663 201.088, 512.250 201.196 C 511.837 201.304, 509.849 199.793, 507.832 197.840 C 505.472 195.556, 502.796 194.062, 500.332 193.655 C 498.224 193.307, 456.563 193.017, 407.750 193.011 L 319 193 318.989 104.250 C 318.983 55.438, 318.688 13.742, 318.333 11.594 C 317.893 8.928, 316.467 6.467, 313.844 3.844 L 310 0 256 0 L 202 0 198.156 3.844 M 0.466 256 C 0.466 285.975, 0.594 298.237, 0.749 283.250 C 0.905 268.262, 0.905 243.737, 0.749 228.750 C 0.594 213.762, 0.466 226.025, 0.466 256" stroke="none" fill="#040404" fill-rule="evenodd"/></svg>